<?xml version="1.0" encoding="iso-8859-1"?>
<!-- Generator: Adobe Illustrator 19.0.0, SVG Export Plug-In . SVG Version: 6.00 Build 0)  -->
<svg version="1.1" id="Layer_1" xmlns="http://www.w3.org/2000/svg" xmlns:xlink="http://www.w3.org/1999/xlink" x="0px" y="0px"
	 viewBox="0 0 511.999 511.999" style="enable-background:new 0 0 511.999 511.999;" xml:space="preserve">
<path style="fill:#B59F7C;" d="M425.305,223.11c-1.828,13.574-4.14,26.898-6.918,39.91c29.77,2.798,53.147,27.917,53.147,58.406
	c0,32.356-26.321,58.677-58.675,58.677c-11.638,0-22.49-3.41-31.622-9.276c-6.253,12.387-13.045,24.076-20.316,35.005
	c15.115,9.334,32.905,14.736,51.938,14.736c54.665,0,99.14-44.474,99.14-99.142C511.999,270.977,474.113,229.256,425.305,223.11z"/>
<path style="fill:#EFCA83;" d="M341.745,178.903H10.978c-3.05,0-5.964,1.268-8.041,3.506c-2.076,2.233-3.13,5.23-2.907,8.275
	c8.286,113.143,49.995,213.003,111.57,267.12c2.004,1.76,4.579,2.732,7.247,2.732h192.254c2.668,0,5.243-0.972,7.247-2.732
	c61.577-54.121,103.285-153.979,111.569-267.12c0.223-3.046-0.83-6.042-2.906-8.278c-2.077-2.236-4.99-3.504-8.042-3.504h-48.217"/>
<path style="fill:#F9D191;" d="M418.966,178.903h-48.217h-29.005H163.495v0.001c0,117.287,72.264,217.679,174.692,259.128
	c50.622-56.79,84.368-146.825,91.729-247.349c0.223-3.046-0.83-6.042-2.906-8.278C424.931,180.171,422.02,178.903,418.966,178.903z"
	/>
<path style="fill:#DBAB5D;" d="M145.629,459.561C81.281,403.005,33.832,325.387,22.341,180.41c-0.039-0.505-0.028-1.007,0.001-1.508
	H10.978c-3.05,0-5.964,1.268-8.041,3.506c-2.076,2.233-3.13,5.23-2.907,8.275c8.286,113.143,49.995,213.003,111.57,267.12
	c2.004,1.76,4.579,2.732,7.247,2.732h28.087C146.479,460.24,146.04,459.921,145.629,459.561z"/>
<path id="SVGCleanerId_0" style="fill:#F24E33;" d="M286.331,272.343l-3.355-3.311c-7.111-7.02-16.527-10.887-26.548-10.887
	l-0.21,0.001c-10.08,0.065-19.535,4.05-26.62,11.223l-11.327,11.473l-11.33-11.475c-7.084-7.172-16.537-11.156-26.625-11.22
	l-0.233-0.001c-9.992,0-19.409,3.865-26.517,10.885l-3.36,3.315c-14.805,14.622-14.953,38.564-0.334,53.374l64.429,65.247
	c1.048,1.062,2.478,1.659,3.97,1.659c1.49,0,2.919-0.597,3.968-1.659l64.43-65.247C301.287,310.911,301.137,286.967,286.331,272.343
	z"/>
<g>
	<path id="SVGCleanerId_0_1_" style="fill:#F24E33;" d="M286.331,272.343l-3.355-3.311c-7.111-7.02-16.527-10.887-26.548-10.887
		l-0.21,0.001c-10.08,0.065-19.535,4.05-26.62,11.223l-11.327,11.473l-11.33-11.475c-7.084-7.172-16.537-11.156-26.625-11.22
		l-0.233-0.001c-9.992,0-19.409,3.865-26.517,10.885l-3.36,3.315c-14.805,14.622-14.953,38.564-0.334,53.374l64.429,65.247
		c1.048,1.062,2.478,1.659,3.97,1.659c1.49,0,2.919-0.597,3.968-1.659l64.43-65.247
		C301.287,310.911,301.137,286.967,286.331,272.343z"/>
</g>
<path style="fill:#EA4126;" d="M172.183,315.68c-14.62-14.809-14.472-38.753,0.334-53.374l3.36-3.315
	c0.236-0.234,0.482-0.455,0.723-0.682c-8.681,0.791-16.759,4.525-23.034,10.722l-3.36,3.315
	c-14.805,14.622-14.953,38.564-0.334,53.374l64.429,65.247c1.048,1.062,2.478,1.659,3.97,1.659c1.49,0,2.919-0.597,3.968-1.659
	l12.145-12.298L172.183,315.68z"/>
<g>
	<path style="fill:#898790;" d="M217.817,152.333c-1.934,0-3.879-0.669-5.458-2.039c-0.73-0.633-17.877-15.738-18.137-37.121
		c-0.16-13.129,5.891-25.365,17.984-36.372c8.404-7.647,12.614-15.654,12.516-23.794c-0.165-13.728-12.241-24.576-12.363-24.682
		c-3.493-3.027-3.87-8.311-0.842-11.803c3.027-3.491,8.311-3.869,11.802-0.841c0.73,0.633,17.877,15.741,18.137,37.123
		c0.158,13.129-5.892,25.366-17.984,36.373c-8.369,7.617-12.58,15.589-12.518,23.692c0.109,13.815,12.269,24.695,12.391,24.804
		c3.456,3.047,3.811,8.326,0.78,11.794C222.466,151.361,220.148,152.333,217.817,152.333z"/>
	<path style="fill:#898790;" d="M273.961,152.33c-1.932,0-3.872-0.67-5.45-2.037c-1.333-1.155-13.021-11.728-13.208-27.135
		c-0.117-9.692,4.275-18.658,13.056-26.651c5.061-4.606,7.615-9.312,7.589-13.985c-0.046-8.11-7.402-14.75-7.477-14.816
		c-3.435-3.057-3.781-8.334-0.744-11.789c3.035-3.456,8.269-3.832,11.744-0.819c1.333,1.155,13.021,11.728,13.208,27.135
		c0.117,9.692-4.275,18.658-13.056,26.651c-5.061,4.606-7.615,9.312-7.589,13.985c0.046,8.11,7.402,14.75,7.475,14.816
		c3.436,3.057,3.782,8.334,0.745,11.789C278.6,151.361,276.286,152.33,273.961,152.33z"/>
	<path style="fill:#898790;" d="M152.73,152.33c-1.932,0-3.872-0.67-5.45-2.037c-1.333-1.155-13.021-11.728-13.208-27.135
		c-0.118-9.692,4.275-18.658,13.056-26.651c5.061-4.606,7.615-9.312,7.589-13.985c-0.046-8.11-7.402-14.75-7.475-14.816
		c-3.436-3.057-3.782-8.334-0.745-11.789c3.035-3.456,8.269-3.832,11.744-0.819c1.333,1.155,13.021,11.728,13.208,27.135
		c0.117,9.692-4.275,18.658-13.056,26.651c-5.061,4.606-7.615,9.312-7.589,13.985c0.046,8.11,7.402,14.75,7.475,14.816
		c3.436,3.057,3.782,8.334,0.745,11.789C157.368,151.361,155.055,152.33,152.73,152.33z"/>
</g>
<path id="SVGCleanerId_1" style="fill:#B59F7C;" d="M157.305,498.364h196.73c10.754,0,19.471-8.719,19.471-19.472
	c0-10.751-8.717-19.47-19.471-19.47H75.912c-10.755,0-19.472,8.719-19.472,19.47c0,10.753,8.717,19.472,19.472,19.472h53.132"/>
<g>
	<path id="SVGCleanerId_1_1_" style="fill:#B59F7C;" d="M157.305,498.364h196.73c10.754,0,19.471-8.719,19.471-19.472
		c0-10.751-8.717-19.47-19.471-19.47H75.912c-10.755,0-19.472,8.719-19.472,19.47c0,10.753,8.717,19.472,19.472,19.472h53.132"/>
</g>
<path style="fill:#9B815D;" d="M354.033,478.892H157.305h-28.261H75.912c-7.203,0-13.477-3.922-16.846-9.737
	c-1.66,2.866-2.626,6.185-2.626,9.736c0,10.753,8.717,19.472,19.472,19.472h53.132h28.261h196.73
	c10.754,0,19.471-8.719,19.471-19.472c0-3.551-0.966-6.869-2.627-9.736C367.509,474.97,361.237,478.892,354.033,478.892z"/>
<g>
</g>
<g>
</g>
<g>
</g>
<g>
</g>
<g>
</g>
<g>
</g>
<g>
</g>
<g>
</g>
<g>
</g>
<g>
</g>
<g>
</g>
<g>
</g>
<g>
</g>
<g>
</g>
<g>
</g>
</svg>
